<?xml version="1.0" encoding="utf-8"?>
<!-- Generator: Adobe Illustrator 16.0.0, SVG Export Plug-In . SVG Version: 6.00 Build 0)  -->
<!DOCTYPE svg PUBLIC "-//W3C//DTD SVG 1.1//EN" "http://www.w3.org/Graphics/SVG/1.1/DTD/svg11.dtd">
<svg version="1.1" id="Layer_1" xmlns="http://www.w3.org/2000/svg" xmlns:xlink="http://www.w3.org/1999/xlink" x="0px" y="0px"
	 width="36px" height="36px" viewBox="0 0 36 36" enable-background="new 0 0 36 36" xml:space="preserve">
<g id="upvote">
	<path fill="none" d="M0,0h36v36H0V0z"/>
	<path fill="#FFFFFF" stroke="#64DD17" stroke-miterlimit="10" d="M1.5,31.5h6v-18h-6V31.5z M34.5,15c0-1.65-1.35-3-3-3h-9.465
		l1.425-6.855l0.045-0.48c0-0.615-0.255-1.185-0.659-1.59L21.255,1.5l-9.87,9.885c-0.555,0.54-0.885,1.29-0.885,2.115v15
		c0,1.65,1.35,3,3,3H27c1.245,0,2.311-0.75,2.76-1.83l4.53-10.574C34.425,18.75,34.5,18.39,34.5,18v-2.865l-0.016-0.015L34.5,15z"/>
</g>
</svg>
