<?xml version="1.0" encoding="utf-8"?>
<!-- Generator: Adobe Illustrator 16.0.0, SVG Export Plug-In . SVG Version: 6.00 Build 0)  -->
<!DOCTYPE svg PUBLIC "-//W3C//DTD SVG 1.1//EN" "http://www.w3.org/Graphics/SVG/1.1/DTD/svg11.dtd">
<svg version="1.1" id="Layer_1" xmlns="http://www.w3.org/2000/svg" xmlns:xlink="http://www.w3.org/1999/xlink" x="0px" y="0px"
	 width="24px" height="24px" viewBox="0 0 24 24" enable-background="new 0 0 24 24" xml:space="preserve">
<path fill="none" d="M0,0h24v24H0V0z"/>
<path fill="#FFFFFF" stroke="#DD2C00" stroke-miterlimit="10" d="M15,3H6C5.17,3,4.46,3.5,4.16,4.22l-3.02,7.05
	C1.05,11.5,1,11.74,1,12v1.91l0.01,0.01L1,14c0,1.1,0.9,2,2,2h6.31l-0.95,4.57l-0.03,0.32c0,0.409,0.17,0.789,0.44,1.06L9.83,23
	l6.59-6.59C16.779,16.05,17,15.55,17,15V5C17,3.9,16.1,3,15,3z M19,3v12h4V3H19z"/>
</svg>
