<?xml version="1.0" encoding="utf-8"?>
<!-- Generator: Adobe Illustrator 16.0.0, SVG Export Plug-In . SVG Version: 6.00 Build 0)  -->
<!DOCTYPE svg PUBLIC "-//W3C//DTD SVG 1.1//EN" "http://www.w3.org/Graphics/SVG/1.1/DTD/svg11.dtd">
<svg version="1.1" id="Layer_1" xmlns="http://www.w3.org/2000/svg" xmlns:xlink="http://www.w3.org/1999/xlink" x="0px" y="0px"
	 width="36px" height="36px" viewBox="0 0 36 36" enable-background="new 0 0 36 36" xml:space="preserve">
<g id="downvote">
	<path fill="none" d="M0,0h36v36H0V0z"/>
	<path fill="#FFFFFF" stroke="#DD2C00" stroke-miterlimit="10" d="M22.5,4.5H9c-1.245,0-2.31,0.75-2.76,1.83L1.71,16.905
		C1.575,17.25,1.5,17.61,1.5,18v2.865l0.015,0.015L1.5,21c0,1.65,1.35,3,3,3h9.465l-1.425,6.855l-0.045,0.479
		c0,0.615,0.255,1.185,0.66,1.59l1.59,1.575l9.885-9.885c0.54-0.54,0.87-1.29,0.87-2.115v-15C25.5,5.85,24.15,4.5,22.5,4.5z
		 M28.5,4.5v18h6v-18H28.5z"/>
</g>
</svg>
